<svg id="Layer_1" data-name="Layer 1" xmlns="http://www.w3.org/2000/svg" viewBox="0 0 106.15 122.88"><defs><style>.cls-1{fill-rule:evenodd;}</style></defs><title>Obelisk</title><path fill="#dcd8c7" class="cls-1" d="M53.42,6.74,41.09,21.06,34,94.7H72.83L65.74,21.06,53.42,6.74ZM50.75,25.68a2.67,2.67,0,0,1,5.34,0V38.62a2.67,2.67,0,0,1-5.34,0V25.68Zm0,20.13a2.67,2.67,0,0,1,5.34,0v44.4a2.67,2.67,0,0,1-5.34,0V45.81ZM20.2,96.73h8.27l7.4-76.94a2.62,2.62,0,0,1,.64-1.58L51.38,1l.3-.3a2.66,2.66,0,0,1,3.75.27L70.32,18.21a2.65,2.65,0,0,1,.64,1.5l7.41,77h8.42A2.32,2.32,0,0,1,89.1,99v9.48h6.14a2.33,2.33,0,0,1,2.31,2.32v8.89h8.6v3.15H0v-3.15H9v-8.89a2.32,2.32,0,0,1,2.32-2.32h6.53V99a2.32,2.32,0,0,1,2.31-2.31Z"/></svg>